<svg xmlns="http://www.w3.org/2000/svg" viewBox="0 0 400 200">
  <path d="M104.5,56.7 C108.6,52.6 115.4,52.6 119.5,56.7 L187.5,124.7 L225.5,86.7 C229.6,82.6 236.4,82.6 240.5,86.7 C244.6,90.8 244.6,97.6 240.5,101.7 L195,147.2 C190.9,151.3 184.1,151.3 180,147.2 L104.5,71.7 C100.4,67.6 100.4,60.8 104.5,56.7 Z M88,56 L168,56 C172.4,56 176,59.6 176,64 C176,68.4 172.4,72 168,72 L120,72 L120,136 C120,140.4 116.4,144 112,144 C107.6,144 104,140.4 104,136 L104,72 L88,72 C83.6,72 80,68.4 80,64 C80,59.6 83.6,56 88,56 Z" fill="#333333"/>
  <rect x="216" y="108" width="40" height="8" rx="4" ry="4" fill="#333333"/>
  <rect x="216" y="124" width="40" height="8" rx="4" ry="4" fill="#333333"/>
  <rect x="216" y="140" width="40" height="8" rx="4" ry="4" fill="#333333"/>
  <text x="168" y="184" font-family="Arial, sans-serif" font-size="32" font-weight="bold" text-anchor="middle" fill="#333333">Task Tracker</text>
</svg>